<svg xmlns="http://www.w3.org/2000/svg" viewBox="0 0 24 24" width="24" height="24">
  <path fill="#A50044" d="M0 12C0 5.373 5.373 0 12 0s12 5.373 12 12-5.373 12-12 12S0 18.627 0 12z"/>
  <path fill="#004D98" d="M12 24c6.627 0 12-5.373 12-12S18.627 0 12 0V24z"/>
  <path fill="none" stroke="#DBA514" stroke-width="1.5" d="M.75 12a11.25 11.25 0 0 1 18.33-9.057"/>
  <path fill="#004D98" d="M1.503 8.358h6.145V4.025H1.503z"/>
  <path fill="#A50044" d="M7.648 8.358h6.145V4.025H7.648z"/>
  <path fill="#EDBB00" d="M4.604 19.98a1.626 1.626 0 1 1-3.252 0 1.626 1.626 0 0 1 3.252 0z"/>
  <path fill="#EDBB00" d="M1.352 14.33a4.01 4.01 0 0 0 6.13 4.978s-2.062-2.316-6.13-4.978z"/>
  <path fill="#A50044" d="M12 10.154v13.06c2.97-.847 5.5-2.8 7.2-5.462.064-1.924-1.28-3.907-2.302-5.32z"/>
  <path fill="#004D98" d="M12 10.154v13.06c-2.97-.847-5.5-2.8-7.2-5.462-.064-1.924 1.28-3.907 2.302-5.32z"/>
  <g fill="#A50044">
    <path d="M3.195 2.502H6.4v3.194H3.195z" transform="rotate(45 4.797 4.099)"/>
    <path d="M9.34 2.502h3.195v3.194H9.34z" transform="rotate(45 10.938 4.099)"/>
  </g>
</svg>
