<svg xmlns="http://www.w3.org/2000/svg" viewBox="0 0 24 24" width="24" height="24">
  <path d="M12 0C5.373 0 0 5.373 0 12s5.373 12 12 12 12-5.373 12-12S18.627 0 12 0zm0 21.6A9.6 9.6 0 1 1 12 2.4a9.6 9.6 0 0 1 0 19.2z" fill="#FEBE10"/>
  <path d="M12 2.4a9.6 9.6 0 0 0-6.788 16.388L12 12 5.212 5.212A9.56 9.56 0 0 1 12 2.4zm6.788 2.812L12 12l6.788 6.788A9.6 9.6 0 0 0 18.788 5.212z" fill="#00529F"/>
  <g fill="#FEBE10">
    <path d="m10.96 5.2 2.2 1.9-3.2 1.6-1.5-3.3zm-3.6 7.6 3.2-1.6-2.2-1.9-3.3 1.5zm.3-4.5L9.34 7l-1.9-2.2-1.5 3.3z"/>
    <path d="m11.23 8.35 1.57.8-.8 1.57-.88-.44-.35-.7-.4-.73zm-.96 4.98 2.65-1.32-1.32-2.65-1.99 1 .66 3z"/>
  </g>
</svg>
