<svg xmlns="http://www.w3.org/2000/svg" viewBox="0 0 32 24"><defs><clipPath id="a"><path d="M0 0h32v24H0z"/></clipPath></defs><g clip-path="url(#a)"><path fill="#000063" d="M0 0h32v24H0z"/><path fill="#fff" d="m14.4 0-1.28 4.32L12 0h-2l-1.12 4.32L7.6 0H6.4l2.4 7.2h2.4l.8-2.56.8 2.56h2.4L16.8 0h-2.4zM0 10.8V12h12v-1.2H0z"/><path fill="red" d="M4 0v8.4h8.4V0H4zm7.2 1.2v6H5.2V1.2h6zM0 1.2v6h2.4v-6H0zm9.6 0v6H12v-6H9.6zM1.2 8.4v2.4H0v1.2h1.2V24h1.2V12h21.6v1.2H24v-1.2h8v-2.4H1.2zM2.4 9.6v1.2h21.6V9.6H2.4z"/><path fill="#fff" d="M30.2 22.46 29.36 24l-4.1-8.52h1.36l3.58 8.98zM20.24 13.04l-1.04 2.4-2.4-1.04 1.04-2.4 2.4 1.04z"/><path fill="red" d="m28.69 13.9-4.24 1.82 1.82-4.24 4.24-1.82-1.82 4.24z"/><path fill="#fff" d="m28.53 14.2-4.22.42.42-4.22 4.22-.42-.42 4.22zM21.2 19.2l1.6 1.6 1.6-1.6-1.6-1.6-1.6 1.6zM26 19.2l1.6 1.6 1.6-1.6-1.6-1.6-1.6 1.6zM20.8 17.2l-1.6 1.6.4 2 .8-1.2.8 1.2.4-2-1.6-1.6zM28 17.2l-1.6 1.6.4 2 .8-1.2.8 1.2.4-2-1.6-1.6zM24.4 14.8l-2 .4.4-2 .8 1.2.8-1.2.4 2-2-.4zM24.4 22l-2 .4.4-2 .8 1.2.8-1.2.4 2-2-.4zM22.4 15.6l-1.2.8 2 .4-1.2.8.4 2 .8-1.2.8 1.2.4-2 .8-1.2-1.2-.8 2-.4-1.2-.8-.4-2-.8 1.2-.8-1.2-.4 2zM25.6 15.6l-1.2.8 2 .4-1.2.8.4 2 .8-1.2.8 1.2.4-2 .8-1.2-1.2-.8 2-.4-1.2-.8-.4-2-.8 1.2-.8-1.2-.4 2z"/></g></svg>